<svg data-v-423bf9ae="" xmlns="http://www.w3.org/2000/svg" viewBox="0 0 194.21801050687023 60" class="font"><!----><!----><!----><g data-v-423bf9ae="" id="ff90a63d-e735-4de3-abcd-2aa6843bcc39" fill="white" transform="matrix(5.6872042027481005,0,0,5.6872042027481005,-1.2511883261386458,-26.445499608315565)"><path d="M7.20 5.64C7.18 5.38 7.04 5.19 6.75 5.19C6.55 5.19 6.43 5.21 6.30 5.26C6.36 5.33 6.37 5.46 6.37 5.56C6.37 5.66 6.33 5.80 6.23 6.01L3.88 10.95L1.40 5.63C1.27 5.36 1.13 5.19 0.83 5.19C0.55 5.19 0.34 5.35 0.22 5.46C0.36 5.61 0.55 5.84 0.63 6.02L3.28 11.47C3.30 11.51 3.33 11.55 3.36 11.61L3.36 14.67C3.36 14.98 3.56 15.16 3.84 15.16C4.07 15.16 4.24 15.05 4.33 14.97C4.21 14.63 4.19 14.15 4.19 13.58L4.17 11.61L6.99 6.19C7.10 5.99 7.20 5.78 7.20 5.64ZM14.21 14.24C14.11 14.43 13.94 14.46 13.85 14.46C13.55 14.46 13.44 14.28 13.44 13.76L13.43 8.30C13.43 7.98 13.23 7.78 12.95 7.78C12.71 7.78 12.56 7.90 12.47 7.98C12.61 8.43 12.61 8.92 12.61 11.33C12.61 13.85 11.40 14.67 10.50 14.67C9.35 14.67 8.93 14.03 8.93 12.12L8.92 8.27C8.92 7.97 8.72 7.78 8.44 7.78C8.22 7.78 8.08 7.88 7.97 7.98C8.06 8.32 8.11 8.83 8.11 9.37L8.11 12.21C8.12 14.42 8.81 15.20 10.29 15.20C11.37 15.20 12.28 14.55 12.67 13.41L12.67 13.85C12.67 14.70 12.99 15.13 13.65 15.13C14.10 15.13 14.36 14.94 14.36 14.62C14.36 14.49 14.32 14.38 14.21 14.24ZM17.93 15.20C20.13 15.20 20.73 14.17 20.73 13.30C20.73 12.01 19.43 11.59 18.30 11.06C17.33 10.61 16.45 10.25 16.45 9.27C16.45 8.50 17.22 8.23 18.03 8.23C19.05 8.23 19.70 8.57 19.74 9.25C19.77 9.39 19.77 9.58 19.71 9.74C19.85 9.79 19.96 9.79 20.09 9.74C20.37 9.67 20.47 9.46 20.47 9.18C20.47 8.30 19.60 7.77 18.07 7.77C16.79 7.77 15.67 8.25 15.67 9.48C15.67 10.84 16.74 11.27 17.84 11.80C18.86 12.29 19.92 12.57 19.92 13.52C19.92 14.31 19.11 14.73 17.98 14.73C16.83 14.73 16.09 14.22 16.06 13.31C16.04 13.10 16.06 12.95 16.11 12.78C15.55 12.70 15.36 13.02 15.36 13.47C15.36 14.41 16.09 15.20 17.93 15.20ZM28.45 14.24C28.35 14.43 28.18 14.46 28.08 14.46C27.79 14.46 27.68 14.28 27.68 13.76L27.66 8.30C27.66 7.98 27.47 7.78 27.19 7.78C26.95 7.78 26.80 7.90 26.71 7.98C26.85 8.43 26.85 8.92 26.85 11.33C26.85 13.85 25.63 14.67 24.74 14.67C23.59 14.67 23.17 14.03 23.17 12.12L23.16 8.27C23.16 7.97 22.96 7.78 22.68 7.78C22.46 7.78 22.32 7.88 22.20 7.98C22.30 8.32 22.34 8.83 22.34 9.37L22.34 12.21C22.36 14.42 23.04 15.20 24.53 15.20C25.61 15.20 26.52 14.55 26.91 13.41L26.91 13.85C26.91 14.70 27.23 15.13 27.89 15.13C28.34 15.13 28.60 14.94 28.60 14.62C28.60 14.49 28.56 14.38 28.45 14.24ZM32.62 4.65C30.79 4.65 30.44 5.99 30.44 7.11L30.44 7.97L29.61 7.97C29.48 7.97 29.37 8.06 29.36 8.23L29.34 8.50C29.53 8.47 30.00 8.46 30.18 8.46L30.44 8.46L30.45 14.67C30.45 14.98 30.63 15.16 30.91 15.16C31.14 15.16 31.29 15.06 31.39 14.97C31.29 14.63 31.26 14.10 31.26 13.58L31.26 8.46L33.10 8.46C33.22 8.46 33.32 8.36 33.33 8.19L33.35 7.92C33.21 7.94 32.52 7.97 32.38 7.97L31.26 7.97L31.26 7.24C31.26 6.17 31.40 5.10 32.59 5.10C33.18 5.10 33.61 5.31 33.61 5.89C33.61 6.10 33.57 6.36 33.35 6.65C33.40 6.72 33.52 6.75 33.64 6.75C33.95 6.75 34.37 6.43 34.37 5.84C34.37 5.07 33.63 4.65 32.62 4.65Z"></path></g><!----><!----></svg>